<svg xmlns="http://www.w3.org/2000/svg" width="103.414" height="103.414"><path data-name="Path 747" d="M43.628 0H17.775a3.031 3.031 0 00-3.03 3.03v16.225a3.03 3.03 0 003.03 3.03h25.854a3.03 3.03 0 003.03-3.03V3.03A3.031 3.031 0 0043.628 0zm-3.03 16.225l-9.979 4.646-9.815-4.646V6.059h19.795z" fill="#704c55"/><path data-name="Path 748" d="M46.657 3.03v16.225a3.03 3.03 0 01-3.03 3.03H30.618v-1.212l9.98-4.848V6.059h-9.98V0h13.01a3.031 3.031 0 013.029 3.03z" fill="#5a344b"/><path data-name="Path 749" d="M58.373 27.469l-1.212 65.642c0 5.813-3.68 6.463-9.493 6.463l-18.462 3.837h-8.535l-2.694-1.01-3.365 1.01h-4.069A10.556 10.556 0 010 92.871v-57.6l1.212-2.949L0 29.211v-2.44a10.558 10.558 0 0110.543-10.55h4.193l2.836 1.957 3.228-1.957h8.4l10.988 4.381 10.1-2.222c4.4 13.373 8.061 3.448 8.079 9.089z" fill="#ffda44"/><path data-name="Path 750" d="M61.238 26.766v66.1a10.557 10.557 0 01-10.544 10.544H30.619V18.04l3.244-1.818h16.83a10.557 10.557 0 0110.545 10.544z" fill="#ffb541"/><path data-name="Path 751" d="M61.237 29.211H35.266v-12.99h-6.06v12.99h-8.429l.023-12.99h-6.063l-.019 12.99H0v6.059h14.709l-.1 68.148h6.059l.1-68.148h8.438v68.141h6.059V35.266h25.972z" fill="#ffb541"/><path data-name="Path 752" d="M61.238 29.199H33.863V16.222h-3.244v87.192h3.244V35.283h27.374z" fill="#ff9100"/><path data-name="Path 753" d="M75.164 42.177H57.449a10.417 10.417 0 00-10.406 10.406v5.613a3.043 3.043 0 003.042 3.042h32.448a3.043 3.043 0 003.042-3.042v-5.613a10.417 10.417 0 00-10.411-10.406zm4.323 12.978l-13.18 3.03-13.18-3.03v-2.571a4.327 4.327 0 014.323-4.323h17.714a4.327 4.327 0 014.323 4.323v2.571z" fill="#704c55"/><path data-name="Path 754" d="M85.571 52.583v5.613a3.043 3.043 0 01-3.042 3.042H66.307v-2.246l13.18-3.838v-2.571a4.327 4.327 0 00-4.323-4.323h-8.857v-6.083h8.857A10.418 10.418 0 0185.57 52.583z" fill="#5a344b"/><path data-name="Path 755" d="M103.414 63.887v30.789a8.747 8.747 0 01-8.736 8.735H37.934a8.747 8.747 0 01-8.735-8.735V63.887a8.747 8.747 0 018.735-8.735h56.744a8.746 8.746 0 018.736 8.735z" fill="#ffe1ba"/><path data-name="Path 756" d="M103.415 63.887v30.789a8.747 8.747 0 01-8.735 8.735H66.307v-48.26h28.372a8.746 8.746 0 018.736 8.736z" fill="#ffbfab"/><path data-name="Path 757" d="M52.615 69.486a3.042 3.042 0 00-4.218-.844l-4.867 3.244a3.045 3.045 0 001.69 5.573c1.223 0 1.377-.306 6.551-3.755a3.042 3.042 0 00.844-4.218z" fill="#ff7f4b"/><path data-name="Path 758" d="M85.773 84.354h-4.867a3.042 3.042 0 100 6.083h4.867a3.042 3.042 0 000-6.083z" fill="#fd5219"/><circle data-name="Ellipse 21" cx="4.664" cy="4.664" r="4.664" transform="translate(69.754 68.132)" fill="#00a0aa"/><circle data-name="Ellipse 22" cx="4.664" cy="4.664" r="4.664" transform="translate(55.154 79.487)" fill="#64dde0"/></svg>