<svg xmlns="http://www.w3.org/2000/svg" width="70" height="70"><g fill="#8d490a"><path data-name="Path 16" d="M2.036 38.599h8.065v9.916a1.952 1.952 0 001.957 1.889h15.5a1.819 1.819 0 001.8-1.889v-9.916h3.763v2.361a1.879 1.879 0 103.758 0v-2.361h3.758v9.916a1.952 1.952 0 001.954 1.889h15.5a1.819 1.819 0 001.8-1.889v-9.916h8.23a1.889 1.889 0 000-3.778H59.9v-5.666a1.819 1.819 0 00-1.8-1.889H42.591a1.952 1.952 0 00-1.957 1.889v5.666H36.88V23.243h21.451a1.872 1.872 0 001.786-1.214 1.892 1.892 0 00-.562-2.1L36.091.435a1.868 1.868 0 00-2.4.006L10.579 19.975a1.866 1.866 0 00-.555 2.075 1.847 1.847 0 001.766 1.2h21.33v11.572h-3.757v-5.667a1.819 1.819 0 00-1.8-1.889h-15.5a1.952 1.952 0 00-1.957 1.889v5.666h-8.07a1.889 1.889 0 000 3.777zm11.824-7.556h11.745v4.014H13.86zm30.537 0h11.744v4.014H44.396z"/><path data-name="Path 17" d="M68.108 54.212a7.747 7.747 0 00-3.6.827 4.123 4.123 0 01-2.048.491 3.4 3.4 0 01-1.894-.5 7.562 7.562 0 00-7.215 0 3.832 3.832 0 01-3.787 0 7.561 7.561 0 00-7.215 0 3.832 3.832 0 01-3.787 0 7.56 7.56 0 00-7.214 0 3.831 3.831 0 01-3.786 0 7.079 7.079 0 00-3.607-.916 7.079 7.079 0 00-3.607.916 3.389 3.389 0 01-1.893.5 3.391 3.391 0 01-1.893-.5 7.079 7.079 0 00-3.607-.916 7.079 7.079 0 00-3.607.916 3.389 3.389 0 01-1.893.5 3.517 3.517 0 01-1.893-.461 7.489 7.489 0 00-3.608-.838 1.952 1.952 0 00-1.953 1.888v12.1A1.935 1.935 0 002.037 70h66.084a1.8 1.8 0 001.88-1.78v-12.1a1.913 1.913 0 00-1.892-1.907z"/><path data-name="Path 18" d="M61.931 12.993a5.666 5.666 0 10-5.638-5.666 5.659 5.659 0 005.638 5.666z"/></g></svg>