<svg xmlns="http://www.w3.org/2000/svg" width="70" height="70"><g fill="#8d490a"><path data-name="Path 19" d="M54.454 53.338h-4.19v-5.554h6.2c1.043 0 1.829-1.139 1.829-2.673v-.963c0-18.04-9.442-32.892-21.48-34.408V6.13c1.18 0 1.928-1.243 1.928-2.777S37.935.576 36.892.576h-3.78c-1.043 0-1.928 1.243-1.928 2.777s.9 2.777 1.849 2.777v3.576C20.992 11.029 11.317 25.967 11.317 44.15v.963c0 1.534.9 2.673 1.947 2.673h5.842v5.554h-3.6c-2.928 0-5.37 3.387-5.37 7.693v6.074c0 1.534.9 2.894 1.947 2.894h45.794c1.043 0 1.829-1.36 1.829-2.894v-6.074c0-4.308-2.324-7.695-5.252-7.695zM32.779 20.097c1.036-.2 1.982.876 2.115 2.4s-.6 2.914-1.63 3.111c-4.009.764-7.692 4.465-9.612 9.66a1.925 1.925 0 01-1.66 1.448 1.436 1.436 0 01-.9-.338 3.534 3.534 0 01-.758-3.766c2.488-6.731 7.258-11.526 12.445-12.515zm-9.9 27.688h23.613v5.554h-23.6z"/><path data-name="Path 20" d="M14.503 8.951a1.724 1.724 0 001.447.992 1.573 1.573 0 001.213-.65 3.74 3.74 0 00.232-3.912l-2.428-4.254a1.514 1.514 0 00-2.66-.342 3.74 3.74 0 00-.232 3.912z"/><path data-name="Path 21" d="M10.825 20.462a3.572 3.572 0 00-.691-3.794l-3.271-2.777c-.9-.766-2.058-.312-2.58 1.017a3.572 3.572 0 00.691 3.794l3.271 2.777a1.449 1.449 0 00.942.372 1.9 1.9 0 001.638-1.389z"/><path data-name="Path 22" d="M5.936 30.927l-3.72-.964c-1.024-.264-2.006.742-2.188 2.253s.5 2.95 1.532 3.217l3.72.964a1.325 1.325 0 00.33.042c.9 0 1.7-.948 1.857-2.3.182-1.505-.503-2.945-1.531-3.212z"/><path data-name="Path 23" d="M69.971 31.895c-.181-1.51-1.159-2.515-2.188-2.253l-3.72.964c-1.027.267-1.713 1.706-1.532 3.217.162 1.348.958 2.3 1.857 2.3a1.323 1.323 0 00.33-.042l3.72-.964c1.029-.272 1.714-1.712 1.533-3.222z"/><path data-name="Path 24" d="M65.649 14.667c-.521-1.328-1.677-1.784-2.579-1.017l-3.271 2.776a3.571 3.571 0 00-.692 3.793 1.9 1.9 0 001.637 1.389 1.449 1.449 0 00.942-.372l3.271-2.776a3.571 3.571 0 00.692-3.793z"/><path data-name="Path 25" d="M52.725 9.154a1.573 1.573 0 001.213.65 1.725 1.725 0 001.447-.992l2.428-4.254A3.741 3.741 0 0057.58.646a1.515 1.515 0 00-2.66.342l-2.428 4.255a3.74 3.74 0 00.233 3.911z"/></g></svg>