<svg xmlns="http://www.w3.org/2000/svg" width="49.068" height="54.526"><path data-name="Path 42" d="M38.913 26.779h3.8a1.561 1.561 0 001.56-1.559v-3.8a1.561 1.561 0 00-1.559-1.559h-3.8a1.561 1.561 0 00-1.559 1.559v3.8a1.561 1.561 0 001.558 1.559zm.038-5.325h3.727v3.727h-3.727zM38.913 36.9h3.8a1.561 1.561 0 001.56-1.563v-3.8a1.561 1.561 0 00-1.559-1.559h-3.8a1.561 1.561 0 00-1.559 1.559v3.8a1.561 1.561 0 001.558 1.563zm.038-5.325h3.727V35.3h-3.727zm-10.892-4.796h3.8a1.561 1.561 0 001.559-1.559v-3.8a1.561 1.561 0 00-1.559-1.559h-3.8A1.561 1.561 0 0026.5 21.42v3.8a1.561 1.561 0 001.559 1.559zm.038-5.325h3.727v3.727h-3.727zM10.155 39.617h-3.8a1.561 1.561 0 00-1.559 1.559v3.8a1.561 1.561 0 001.559 1.559h3.8a1.561 1.561 0 001.559-1.559v-3.8a1.561 1.561 0 00-1.559-1.559zm-.038 5.325H6.39v-3.728h3.727zm.038-25.085h-3.8a1.561 1.561 0 00-1.559 1.559v3.8a1.561 1.561 0 001.559 1.559h3.8a1.561 1.561 0 001.559-1.559v-3.8a1.561 1.561 0 00-1.559-1.559zm-.038 5.325H6.39v-3.728h3.727zm17.942 11.477h3.8a1.561 1.561 0 001.563-1.559v-3.8a1.561 1.561 0 00-1.559-1.559h-3.8A1.561 1.561 0 0026.5 31.3v3.8a1.561 1.561 0 001.559 1.559zm.038-5.325h3.727v3.727h-3.727zM45.073 3.65h-3.419V2.429A2.432 2.432 0 0039.225 0h-.367a2.432 2.432 0 00-2.429 2.429V3.65H12.638V2.429A2.432 2.432 0 0010.209 0h-.366a2.432 2.432 0 00-2.429 2.429V3.65H3.999a4 4 0 00-4 4v42.883a4 4 0 003.994 3.994h41.08a4 4 0 004-3.994V7.649a4 4 0 00-4-4zm-7.046-1.221a.832.832 0 01.831-.831h.367a.832.832 0 01.831.831V3.65h-2.03zm-29.016 0a.832.832 0 01.832-.829h.367a.832.832 0 01.831.831V3.65h-2.03V2.429zm38.462 48.104a2.4 2.4 0 01-2.4 2.4H3.994a2.4 2.4 0 01-2.4-2.4v-.005a3.978 3.978 0 002.4.8h32.389a3.973 3.973 0 002.828-1.171l8.262-8.257zm-9.075-1.817a3.416 3.416 0 00.1-.805v-5.332a1.825 1.825 0 011.823-1.823h5.332a3.416 3.416 0 00.805-.1zm9.075-33.652H13.437a.8.8 0 100 1.6h34.036v20.671a1.826 1.826 0 01-1.823 1.823h-5.334a3.425 3.425 0 00-3.421 3.421v5.332a1.825 1.825 0 01-1.822 1.823H3.999a2.4 2.4 0 01-2.4-2.4V16.662h8.645a.8.8 0 000-1.6H1.597V7.649a2.4 2.4 0 012.4-2.4h3.415V7.6a2.432 2.432 0 002.429 2.429.8.8 0 000-1.6.832.832 0 01-.831-.831v-2.35h27.42V7.6a2.432 2.432 0 002.429 2.429.8.8 0 000-1.6.832.832 0 01-.831-.831v-2.35h7.045a2.4 2.4 0 012.4 2.4zM10.155 29.737h-3.8A1.561 1.561 0 004.792 31.3v3.8a1.561 1.561 0 001.559 1.559h3.8a1.561 1.561 0 001.564-1.559v-3.8a1.561 1.561 0 00-1.56-1.563zm-.038 5.325H6.39v-3.728h3.727zm7.088-8.283h3.8a1.561 1.561 0 001.568-1.559v-3.8a1.561 1.561 0 00-1.559-1.559h-3.8a1.561 1.561 0 00-1.559 1.559v3.8a1.561 1.561 0 001.55 1.559zm.038-5.325h3.73v3.727h-3.73zm10.853 23.488a.8.8 0 00-1.6.038 1.561 1.561 0 001.559 1.559h3.8a1.561 1.561 0 001.559-1.559v-3.8a1.561 1.561 0 00-1.559-1.559h-3.8a1.561 1.561 0 00-1.559 1.559v1.1a.8.8 0 101.6 0v-1.066h3.727v3.727zm-10.891-8.283h3.8a1.561 1.561 0 001.568-1.559v-3.8a1.561 1.561 0 00-1.559-1.559h-3.8a1.561 1.561 0 00-1.568 1.559v3.8a1.561 1.561 0 001.559 1.559zm.038-5.325h3.73v3.727h-3.73zm-.038 15.2h3.8a1.561 1.561 0 001.568-1.554v-3.8a1.561 1.561 0 00-1.559-1.559h-3.8a1.561 1.561 0 00-1.559 1.559v3.8a1.561 1.561 0 001.55 1.559zm.038-5.325h3.73v3.727h-3.73z" fill="#9e4f06"/></svg>