<svg data-name="chat (2)" xmlns="http://www.w3.org/2000/svg" width="33" height="33"><defs><linearGradient id="a" x1=".5" x2=".5" y2="1" gradientUnits="objectBoundingBox"><stop offset="0" stop-color="#476e0b"/><stop offset="1" stop-color="#6eaf0a"/></linearGradient></defs><path data-name="Path 868" d="M149.656 128.05h-1.031v8.11a6.3 6.3 0 01-6.265 6.324H128v3.094a3.1 3.1 0 003.094 3.094H146.2l4.873 3.9a1.046 1.046 0 00.645.226 1 1 0 00.445-.1 1.043 1.043 0 00.587-.928v-20.626a3.1 3.1 0 00-3.094-3.094z" transform="translate(-119.75 -119.798)" fill="url(#a)"/><path data-name="Path 869" d="M22.688.05H4.125A4.129 4.129 0 000 4.176V24.8a1.028 1.028 0 001.031 1.031 1 1 0 00.657-.239l5.9-4.919h15.1a4.129 4.129 0 004.125-4.126V4.176A4.129 4.129 0 0022.688.05z" transform="translate(0 -.05)" fill="url(#a)"/><g data-name="Group 490" transform="translate(6.188 6.189)" fill="url(#a)"><path data-name="Path 870" d="M13.406 0H1.031a1.032 1.032 0 000 2.063h12.375a1.032 1.032 0 000-2.063z"/><path data-name="Path 871" d="M9.281 4.126h-8.25a1.032 1.032 0 000 2.063h8.25a1.032 1.032 0 000-2.063z"/></g></svg>