<svg xmlns="http://www.w3.org/2000/svg" width="70" height="70"><g data-name="Group 10"><g data-name="Group 9"><path data-name="Rectangle 8" fill="#8d490a" d="M54.347 23.731h9.322v37.605h-9.322z"/></g></g><g data-name="Group 12"><g data-name="Group 11"><path data-name="Rectangle 9" fill="#8d490a" d="M42.387 23.731h9.146v37.605h-9.146z"/></g></g><g data-name="Group 14"><g data-name="Group 13"><path data-name="Path 8" d="M35.439 0L2.286 14.888v5.893h66.307v-5.893zm-.046 16.959a5.559 5.559 0 01-5.424-5.685 5.43 5.43 0 1110.848 0 5.566 5.566 0 01-5.424 5.685z" fill="#8d490a"/></g></g><g data-name="Group 16"><g data-name="Group 15"><ellipse data-name="Ellipse 4" cx="2.61" cy="2.736" rx="2.61" ry="2.736" fill="#8d490a" transform="translate(32.784 8.538)"/></g></g><g data-name="Group 18"><g data-name="Group 17"><path data-name="Rectangle 10" fill="#8d490a" d="M0 64.285h70V70H0z"/></g></g><g data-name="Group 20"><g data-name="Group 19"><path data-name="Rectangle 11" fill="#8d490a" d="M7.211 23.731h8.442v37.605H7.211z"/></g></g><g data-name="Group 22"><g data-name="Group 21"><path data-name="Rectangle 12" fill="#8d490a" d="M18.467 23.731h9.146v37.605h-9.146z"/></g></g><g data-name="Group 24"><g data-name="Group 23"><path data-name="Rectangle 13" fill="#8d490a" d="M30.427 23.731h9.146v37.605h-9.146z"/></g></g></svg>