<svg data-name="facebook (1)" xmlns="http://www.w3.org/2000/svg" xmlns:xlink="http://www.w3.org/1999/xlink" width="63.637" height="63.637"><defs><linearGradient id="b" x1=".332" y1=".141" x2=".585" y2=".682" gradientUnits="objectBoundingBox"><stop offset="0" stop-color="#3457a0"/><stop offset="1" stop-color="#3b5998"/></linearGradient><linearGradient id="a" x1=".714" y1=".647" x2="-.271" y2="-.03" gradientUnits="objectBoundingBox"><stop offset="0" stop-color="#3457a0" stop-opacity="0"/><stop offset="1" stop-color="#1f3f77"/></linearGradient><linearGradient id="c" x1=".5" y1=".177" x2=".5" y2=".855" xlink:href="#a"/><linearGradient id="d" x1="1.26" y1=".791" x2=".043" y2=".371" gradientUnits="objectBoundingBox"><stop offset="0" stop-color="#3457a0" stop-opacity="0"/><stop offset=".325" stop-color="#2a4c8d" stop-opacity=".325"/><stop offset=".705" stop-color="#22427d" stop-opacity=".706"/><stop offset="1" stop-color="#1f3f77"/></linearGradient></defs><path data-name="Path 10" d="M52.255 62.547a192.213 192.213 0 01-40.872 0A11.587 11.587 0 011.089 52.254a192.207 192.207 0 010-40.872A11.587 11.587 0 0111.382 1.089a192.208 192.208 0 0140.872 0 11.587 11.587 0 0110.294 10.293 192.209 192.209 0 010 40.872 11.587 11.587 0 01-10.293 10.293zm0 0" transform="translate(0 .001)" fill="url(#b)"/><path data-name="Path 11" d="M84.337 38.935A10.282 10.282 0 0075.2 29.8a170.627 170.627 0 00-36.269 0 10.283 10.283 0 00-9.131 9.135 170.621 170.621 0 000 36.268 10.283 10.283 0 009.134 9.134 170.558 170.558 0 0036.268 0 10.282 10.282 0 009.135-9.137 170.557 170.557 0 000-36.268zm0 0" transform="translate(-25.25 -25.25)" fill="url(#a)"/><path data-name="Path 12" d="M7.672 409.8q.066.66.136 1.32A11.588 11.588 0 0018.1 421.418a192.21 192.21 0 0040.872 0 11.587 11.587 0 0010.293-10.293q.071-.66.136-1.32zm0 0" transform="translate(-6.718 -358.87)" fill="url(#c)"/><path data-name="Path 13" d="M235.418 85.27a10.039 10.039 0 00-10.039 10.039v7.5h-5.4v9.284l5.4 4.839v21.374a192.632 192.632 0 0019.511-1.087 11.587 11.587 0 0010.293-10.293 192.17 192.17 0 00.829-30.414L244.771 85.27zm0 0" transform="translate(-192.635 -74.671)" fill="url(#d)"/><path data-name="Path 14" d="M32.744 63.634q5.562-.027 11.121-.377V37.421h7.379l.891-9.284h-8.27v-5.9a2.358 2.358 0 012.358-2.358h5.913v-9.281h-9.352a10.039 10.039 0 00-10.039 10.039v7.5h-5.4v9.284h5.4zm0 0" fill="#fff"/></svg>