<svg xmlns="http://www.w3.org/2000/svg" width="70" height="70"><path data-name="Path 9" d="M66.452 17.116c-.624-5.588-1.619-9.938-3.193-11.648-6.489-7.031-51.945-7.546-57.106 0C4.89 7.316 4.005 11.652 3.41 17.125A3.653 3.653 0 000 20.617v6.845a3.559 3.559 0 002.525 3.306 261.11 261.11 0 00.456 27.623c0 4.318 3.17 3.6 3.17 3.6h2.971v4.662C9.122 68.5 11.204 70 13.774 70s4.651-1.5 4.651-3.345v-4.662h34.56v4.662c0 1.845 2.081 3.345 4.649 3.345s4.648-1.5 4.648-3.345v-4.662h.976s3.73.468 3.969-1.565c0-5.578.384-17.942.067-29.612a3.565 3.565 0 002.705-3.354v-6.844a3.663 3.663 0 00-3.547-3.502zM17.254 6.471h34.9V11.3h-34.9zm.5 50.018a4.558 4.558 0 110-9.08 4.558 4.558 0 110 9.08zm34.218 0a4.558 4.558 0 114.961-4.542 4.769 4.769 0 01-4.959 4.542zm6.302-19.874H11.133V13.984h47.141z" fill="#8d490a"/></svg>