<svg xmlns="http://www.w3.org/2000/svg" width="62.043" height="62.043"><path data-name="Path 10" d="M56.82 51.614h-2.054v-3.521a6.781 6.781 0 005.257-6.678 6.919 6.919 0 00-10.48-5.9V11.978a1.612 1.612 0 00-1.6-1.669H14.101a1.731 1.731 0 00-1.741 1.669v23.54a6.753 6.753 0 00-3.517-.986 6.885 6.885 0 00-1.706 13.561v3.521H5.222A5.225 5.225 0 000 56.829a5.32 5.32 0 005.64 5.215h15.076v-12.1a1.731 1.731 0 011.741-1.666h17.13a1.612 1.612 0 011.6 1.669v12.1h16.05a5.154 5.154 0 004.8-5.215 5.225 5.225 0 00-5.217-5.218zM41.397 23.871a1.67 1.67 0 01-1.671-1.669v-3.546a1.671 1.671 0 013.342 0v3.546a1.67 1.67 0 01-1.671 1.669zm1.671 5.007v3.546a1.671 1.671 0 01-3.342 0v-3.546a1.671 1.671 0 013.342 0zM3.342 56.829a1.881 1.881 0 011.88-1.877h7.137v3.755H5.64c-1.353-.001-2.298-.773-2.298-1.878zm5.539-18.96a3.546 3.546 0 11-3.551 3.546 3.553 3.553 0 013.551-3.546zm3.482 9.444v4.3h-1.882v-3.52a4.237 4.237 0 001.879-.78zm40.8-9.444a3.546 3.546 0 11-3.551 3.546 3.553 3.553 0 013.552-3.546zm-3.619 13.745v-4.3a8.319 8.319 0 001.88.781v3.521zm0 3.337h7.277a1.9 1.9 0 01.418 3.755h-7.695zM22.181 42.853a1.671 1.671 0 01-3.342 0v-3.546a1.671 1.671 0 013.342 0zm0-10.43a1.671 1.671 0 01-3.342 0v-3.545a1.671 1.671 0 013.342 0zm0-10.221a1.671 1.671 0 01-3.342 0v-3.546a1.671 1.671 0 013.342 0zm6.894 20.651a1.671 1.671 0 01-3.342 0v-3.546a1.671 1.671 0 013.342 0zm0-10.43a1.671 1.671 0 01-3.342 0v-3.545a1.671 1.671 0 013.342 0zm0-10.221a1.671 1.671 0 01-3.342 0v-3.546a1.671 1.671 0 013.342 0zm6.894 20.651a1.671 1.671 0 01-3.342 0v-3.546a1.671 1.671 0 013.342 0zm0-10.43a1.671 1.671 0 01-3.342 0v-3.545a1.671 1.671 0 013.342 0zm0-10.221a1.671 1.671 0 01-3.342 0v-3.546a1.671 1.671 0 013.342 0zm3.76 20.651v-3.546a1.671 1.671 0 013.342 0v3.546a1.671 1.671 0 01-3.342 0z" fill="#9e4f06"/><path data-name="Path 11" d="M25.531 3.011h-1.4l-.432-1.327a.627.627 0 00-1.193 0l-.432 1.327h-1.4a.626.626 0 00-.337 1.149l1.092.717-.413 1.2a.626.626 0 00.958.713l1.127-.807 1.131.841a.627.627 0 00.969-.7l-.419-1.246 1.093-.713a.626.626 0 00-.343-1.15z" fill="#9e4f06"/><path data-name="Path 12" d="M17.697 4.262h-1.394l-.432-1.327a.627.627 0 00-1.193 0l-.432 1.327h-1.4a.626.626 0 00-.343 1.149l1.092.717-.413 1.2a.626.626 0 00.958.713l1.127-.807 1.131.841a.627.627 0 00.969-.7l-.419-1.246 1.093-.713a.626.626 0 00-.343-1.15z" fill="#9e4f06"/><path data-name="Path 13" d="M41.223 3.011h-1.4l-.432-1.327a.627.627 0 00-1.192 0l-.432 1.327h-1.4a.626.626 0 00-.343 1.15l1.093.713-.419 1.246a.627.627 0 00.969.7l1.131-.841 1.127.807a.626.626 0 00.958-.713l-.413-1.2 1.092-.717a.625.625 0 00-.344-1.148z" fill="#9e4f06"/><path data-name="Path 14" d="M49.656 4.708a.627.627 0 00-.6-.446h-1.4l-.432-1.327a.627.627 0 00-1.192 0L45.6 4.262h-1.4a.626.626 0 00-.343 1.15l1.093.713-.419 1.246a.627.627 0 00.969.7l1.131-.841 1.127.807a.626.626 0 00.958-.713l-.413-1.2 1.092-.717a.626.626 0 00.261-.699z" fill="#9e4f06"/><path data-name="Path 15" d="M33.365 1.759h-1.4L31.536.433a.627.627 0 00-1.193 0l-.432 1.327h-1.4a.626.626 0 00-.34 1.148l1.092.717-.414 1.2a.626.626 0 00.958.713l1.127-.807 1.131.841a.627.627 0 00.969-.7l-.419-1.246 1.093-.713a.625.625 0 00-.343-1.149z" fill="#9e4f06"/><path data-name="Rectangle 14" fill="#9e4f06" d="M25.729 51.613h10.445v10.43H25.729z"/></svg>