<svg xmlns="http://www.w3.org/2000/svg" width="89" height="131.414"><path data-name="Rectangle 74" fill="#dee4e9" d="M9.108 17.757h70.783v109.879H9.108z"/><path data-name="Path 759" d="M82.597 51.666a2.348 2.348 0 01-2.353 2.353h-70.7a2.335 2.335 0 110-4.669h70.7a2.339 2.339 0 012.353 2.316z" fill="#cbd6e0"/><g data-name="Group 314" fill="#65b1ef"><path data-name="Path 760" d="M31.046 33.663v-6.6a1.852 1.852 0 00-1.844-1.844h-8.9a1.852 1.852 0 00-1.844 1.844v6.6h12.591z"/><path data-name="Path 761" d="M18.455 36.147v6.838a1.852 1.852 0 001.844 1.844h8.9a1.852 1.852 0 001.844-1.844v-6.838z"/><path data-name="Path 762" d="M50.795 33.663v-6.6a1.852 1.852 0 00-1.844-1.844h-8.9a1.852 1.852 0 00-1.844 1.844v6.6h12.587z"/><path data-name="Path 763" d="M38.204 36.147v6.838a1.852 1.852 0 001.844 1.844h8.9a1.852 1.852 0 001.844-1.844v-6.838z"/><path data-name="Path 764" d="M70.544 33.663v-6.6a1.852 1.852 0 00-1.844-1.844h-8.9a1.852 1.852 0 00-1.844 1.844v6.6h12.587z"/><path data-name="Path 765" d="M57.953 36.147v6.838a1.852 1.852 0 001.844 1.844h8.9a1.852 1.852 0 001.84-1.844v-6.838z"/></g><path data-name="Path 766" d="M82.597 88.105a2.348 2.348 0 01-2.353 2.353h-70.7a2.335 2.335 0 110-4.669h70.7a2.339 2.339 0 012.353 2.316z" fill="#cbd6e0"/><g data-name="Group 315" fill="#65b1ef"><path data-name="Path 767" d="M31.046 70.097v-6.6a1.852 1.852 0 00-1.844-1.844h-8.9a1.852 1.852 0 00-1.844 1.844v6.6z"/><path data-name="Path 768" d="M18.455 72.586v6.833a1.852 1.852 0 001.844 1.844h8.9a1.852 1.852 0 001.844-1.844v-6.833z"/><path data-name="Path 769" d="M50.795 70.097v-6.6a1.852 1.852 0 00-1.844-1.844h-8.9a1.852 1.852 0 00-1.844 1.844v6.6z"/><path data-name="Path 770" d="M38.204 72.586v6.833a1.852 1.852 0 001.844 1.844h8.9a1.852 1.852 0 001.844-1.844v-6.833z"/><path data-name="Path 771" d="M70.544 70.097v-6.6a1.852 1.852 0 00-1.844-1.844h-8.9a1.852 1.852 0 00-1.844 1.844v6.6z"/><path data-name="Path 772" d="M57.953 72.586v6.833a1.852 1.852 0 001.844 1.844h8.9a1.852 1.852 0 001.84-1.843v-6.834z"/><path data-name="Path 773" d="M70.544 106.536v-6.6a1.852 1.852 0 00-1.844-1.844h-8.9a1.852 1.852 0 00-1.844 1.844v6.6z"/><path data-name="Path 774" d="M57.953 109.025v6.832a1.852 1.852 0 001.844 1.844h8.9a1.852 1.852 0 001.84-1.844v-6.834z"/></g><path data-name="Path 775" d="M45.005 96.244v31.4h-27.93v-31.4a2.179 2.179 0 012.172-2.172H42.84a2.177 2.177 0 012.165 2.172z" fill="#3e4347"/><path data-name="Rectangle 75" fill="#89664c" d="M19.786 96.787h22.509v30.866H19.786z"/><path data-name="Rectangle 76" fill="#7a5b44" d="M30.245 96.787h1.589v30.866h-1.589z"/><path data-name="Path 776" d="M88.893 3.076l-4.558 15.338a2.335 2.335 0 01-2.279 1.7H6.944a2.324 2.324 0 01-2.279-1.7L.106 3.076A2.373 2.373 0 012.381 0h84.232a2.374 2.374 0 012.28 3.076z" fill="#e24b4b"/><g data-name="Group 316" transform="translate(27.469 110.413)" fill="#7a5b44"><ellipse data-name="Ellipse 23" cx=".85" cy=".838" rx=".85" ry=".838" transform="translate(5.462)"/><ellipse data-name="Ellipse 24" cx=".85" cy=".838" rx=".85" ry=".838"/></g><g data-name="Group 317" fill="#fff"><path data-name="Path 777" d="M19.613 15.483V4.637h2.189v4.267h4.292V4.637h2.189v10.846h-2.19V10.74h-4.292v4.743z"/><path data-name="Path 778" d="M30.097 10.127c0-3.6 1.984-5.675 5.244-5.675 3.047 0 5.273 1.914 5.273 5.622 0 3.63-2.16 5.593-5.244 5.593-3.109 0-5.273-1.959-5.273-5.54zm2.259-.078c0 2.567 1.351 3.741 3.01 3.741s2.99-1.15 2.99-3.774c0-2.6-1.269-3.7-2.99-3.7S32.36 7.45 32.36 10.049z"/><path data-name="Path 779" d="M44.775 15.483v-9.01h-3.22V4.637h8.62v1.836h-3.211v9.01z"/><path data-name="Path 780" d="M51.588 15.483V4.637h8.041v1.836h-5.857v2.4h5.445v1.83h-5.445v2.953h6.057v1.827z"/><path data-name="Path 781" d="M61.752 15.483V4.723h2.184v8.928h5.445v1.832z"/></g><path data-name="Path 782" d="M82.597 129.061a2.348 2.348 0 01-2.353 2.353h-70.7a2.335 2.335 0 110-4.669h70.7a2.339 2.339 0 012.353 2.316z" fill="#cbd6e0"/></svg>