<svg xmlns="http://www.w3.org/2000/svg" width="74.894" height="74.894"><path data-name="Path 10" d="M68.589 62.304h-2.48v-4.25a8.185 8.185 0 006.346-8.061 8.353 8.353 0 00-12.65-7.119V14.462a1.946 1.946 0 00-1.933-2.014H17.021a2.089 2.089 0 00-2.1 2.014v28.412a8.151 8.151 0 00-4.245-1.191 8.311 8.311 0 00-2.06 16.372v4.25H6.304a6.307 6.307 0 00-6.3 6.295c0 3.589 2.927 6.3 6.809 6.3h18.2V60.3a2.089 2.089 0 012.1-2.014h20.668a1.946 1.946 0 011.933 2.014v14.6h19.38c3.09 0 5.8-2.942 5.8-6.3a6.307 6.307 0 00-6.305-6.296zm-18.618-33.49a2.016 2.016 0 01-2.017-2.014v-4.28a2.018 2.018 0 014.035 0v4.281a2.016 2.016 0 01-2.018 2.013zm2.017 6.043v4.281a2.018 2.018 0 01-4.035 0v-4.28a2.018 2.018 0 014.035 0zM4.034 68.599a2.27 2.27 0 012.27-2.266h8.616v4.532H6.808c-1.633.001-2.774-.931-2.774-2.266zm6.682-22.885a4.281 4.281 0 11-4.287 4.281 4.289 4.289 0 014.287-4.281zm4.2 11.4v5.19h-2.27v-4.25a5.114 5.114 0 002.274-.94zm49.265-11.4a4.281 4.281 0 11-4.287 4.281 4.289 4.289 0 014.287-4.281zm-4.375 16.59v-5.19a10.041 10.041 0 002.27.942v4.25zm0 4.029h8.784a2.3 2.3 0 01.5 4.532h-9.284zM26.771 51.729a2.018 2.018 0 01-4.035 0v-4.281a2.018 2.018 0 014.035 0zm0-12.59a2.018 2.018 0 01-4.035 0v-4.281a2.018 2.018 0 014.035 0zm0-12.338a2.018 2.018 0 01-4.035 0V22.52a2.018 2.018 0 014.035 0zm8.322 24.928a2.018 2.018 0 01-4.035 0v-4.281a2.018 2.018 0 014.035 0zm0-12.59a2.018 2.018 0 01-4.035 0v-4.281a2.018 2.018 0 014.035 0zm0-12.338a2.018 2.018 0 01-4.035 0V22.52a2.018 2.018 0 014.035 0zm8.322 24.928a2.018 2.018 0 01-4.035 0v-4.281a2.018 2.018 0 014.035 0zm0-12.59a2.018 2.018 0 01-4.035 0v-4.281a2.018 2.018 0 014.035 0zm0-12.338a2.018 2.018 0 01-4.035 0V22.52a2.018 2.018 0 014.035 0zm4.539 24.928v-4.281a2.018 2.018 0 014.035 0v4.281a2.018 2.018 0 01-4.035 0z" fill="#6ea120"/><path data-name="Path 11" d="M30.819 3.635h-1.687l-.521-1.6a.757.757 0 00-1.44 0l-.521 1.6h-1.686a.755.755 0 00-.416 1.387l1.318.866-.5 1.444a.756.756 0 001.156.86l1.36-.974 1.366 1.016a.756.756 0 001.169-.846l-.505-1.5 1.32-.86a.755.755 0 00-.414-1.388z" fill="#6ea120"/><path data-name="Path 12" d="M21.363 5.146h-1.686l-.521-1.6a.757.757 0 00-1.44 0l-.521 1.6h-1.687a.755.755 0 00-.416 1.387l1.318.866-.5 1.444a.756.756 0 001.156.86l1.36-.974 1.366 1.016a.756.756 0 001.169-.846l-.505-1.5 1.32-.86a.755.755 0 00-.414-1.388z" fill="#6ea120"/><path data-name="Path 13" d="M49.761 3.635h-1.687l-.521-1.6a.757.757 0 00-1.439 0l-.521 1.6h-1.687a.755.755 0 00-.414 1.388l1.32.86-.505 1.5a.757.757 0 001.169.846l1.366-1.016 1.36.974a.756.756 0 001.156-.86l-.5-1.444 1.318-.866a.755.755 0 00-.416-1.386z" fill="#6ea120"/><path data-name="Path 14" d="M59.942 5.684a.756.756 0 00-.725-.539H57.53l-.521-1.6a.757.757 0 00-1.439 0l-.521 1.6h-1.687a.755.755 0 00-.414 1.388l1.32.86-.505 1.5a.757.757 0 001.169.846l1.366-1.016 1.36.974a.756.756 0 001.156-.86l-.5-1.444 1.318-.866a.755.755 0 00.31-.843z" fill="#6ea120"/><path data-name="Path 15" d="M40.275 2.124h-1.687l-.521-1.6a.757.757 0 00-1.44 0l-.521 1.6h-1.687a.755.755 0 00-.416 1.387l1.318.865-.5 1.444a.756.756 0 001.156.86l1.36-.974 1.366 1.016a.756.756 0 001.169-.846l-.505-1.5 1.32-.86a.755.755 0 00-.414-1.387z" fill="#6ea120"/><path data-name="Rectangle 14" fill="#6ea120" d="M31.058 62.304h12.608v12.59H31.058z"/></svg>