<svg xmlns="http://www.w3.org/2000/svg" xmlns:xlink="http://www.w3.org/1999/xlink" width="63.637" height="63.637"><defs><linearGradient id="c" x1=".369" y1=".426" x2="-1.54" y2="-.648" gradientUnits="objectBoundingBox"><stop offset="0" stop-color="#a1b5d8" stop-opacity="0"/><stop offset=".309" stop-color="#90a2bd" stop-opacity=".31"/><stop offset=".755" stop-color="#7c8b9c" stop-opacity=".757"/><stop offset="1" stop-color="#748290"/></linearGradient><linearGradient id="d" x1=".5" y1=".413" x2=".5" y2="1.193" gradientUnits="objectBoundingBox"><stop offset="0" stop-color="#fae100" stop-opacity="0"/><stop offset=".307" stop-color="#fca800" stop-opacity=".306"/><stop offset=".627" stop-color="#fe7300" stop-opacity=".627"/><stop offset=".868" stop-color="#ff5200" stop-opacity=".867"/><stop offset="1" stop-color="#ff4500"/></linearGradient><linearGradient id="a" x1=".316" y1=".311" x2=".012" y2=".005" gradientUnits="objectBoundingBox"><stop offset="0" stop-color="#833ab4" stop-opacity="0"/><stop offset="1" stop-color="#833ab4"/></linearGradient><linearGradient id="e" x1=".582" y1=".887" x2=".418" y2=".113" xlink:href="#a"/><linearGradient id="f" x1=".605" y1=".605" x2="-.16" y2="-.16" xlink:href="#a"/><linearGradient id="g" x1=".376" y1=".332" x2="-.072" y2="-.063" xlink:href="#a"/><linearGradient id="h" x1=".816" y1=".182" x2=".172" y2=".835" gradientUnits="objectBoundingBox"><stop offset="0" stop-color="#833ab4"/><stop offset=".092" stop-color="#9c3495"/><stop offset=".293" stop-color="#dc2546"/><stop offset=".392" stop-color="#fd1d1d"/><stop offset=".559" stop-color="#fc6831"/><stop offset=".689" stop-color="#fc9b40"/><stop offset=".752" stop-color="#fcaf45"/><stop offset=".781" stop-color="#fdb750"/><stop offset=".866" stop-color="#fecb6a"/><stop offset=".942" stop-color="#ffd87a"/><stop offset="1" stop-color="#ffdc80"/></linearGradient><radialGradient id="b" cx=".205" cy=".874" r="1.103" gradientUnits="objectBoundingBox"><stop offset="0" stop-color="#fae100"/><stop offset=".054" stop-color="#fadc04"/><stop offset=".117" stop-color="#fbce0e"/><stop offset=".183" stop-color="#fcb720"/><stop offset=".251" stop-color="#fe9838"/><stop offset=".305" stop-color="#ff7950"/><stop offset=".492" stop-color="#ff1c74"/><stop offset="1" stop-color="#6c1cd1"/></radialGradient></defs><path data-name="Path 20" d="M62.547 11.382A11.586 11.586 0 0052.254 1.089a192.207 192.207 0 00-40.872 0A11.587 11.587 0 001.089 11.382a192.207 192.207 0 000 40.872 11.587 11.587 0 0010.293 10.294 192.212 192.212 0 0040.872 0 11.587 11.587 0 0010.293-10.294 192.207 192.207 0 000-40.872zm0 0" transform="translate(.001)" fill="url(#b)"/><path data-name="Path 21" d="M84.337 38.935A10.282 10.282 0 0075.2 29.8a170.626 170.626 0 00-36.269 0 10.283 10.283 0 00-9.131 9.135 170.622 170.622 0 000 36.268 10.283 10.283 0 009.134 9.134 170.559 170.559 0 0036.268 0 10.282 10.282 0 009.135-9.137 170.557 170.557 0 000-36.268zm0 0" transform="translate(-25.25 -25.25)" fill="url(#c)"/><path data-name="Path 22" d="M7.672 409.8q.066.66.136 1.32A11.587 11.587 0 0018.1 421.418a192.21 192.21 0 0040.872 0 11.587 11.587 0 0010.293-10.293q.071-.66.136-1.32zm0 0" transform="translate(-6.718 -358.87)" fill="url(#d)"/><path data-name="Path 23" d="M145.819 137.476a192.373 192.373 0 001.083-21.962l-14.546-14.546a10.418 10.418 0 00-7.591-3.482 274.975 274.975 0 00-19.264 0c-5.328.184-9.054 3.765-10.009 9.028-.168.929-.269 1.871-.4 2.807v15.431c.073.5.181 1 .215 1.5a11.218 11.218 0 003.636 7.8l14.8 14.8a192.382 192.382 0 0021.783-1.085 11.587 11.587 0 0010.293-10.293zm0 0" transform="translate(-83.271 -85.222)" fill="url(#a)"/><path data-name="Path 24" d="M173.109 163.265a11.587 11.587 0 01-10.293 10.293 192.476 192.476 0 01-21.783 1.085l-14.78-14.78a10.363 10.363 0 006.538 2.511c6.414.241 12.85.235 19.263 0a10.308 10.308 0 0010.18-10.3c.193-6.159.193-12.334 0-18.494a10.737 10.737 0 00-2.58-6.813l14.538 14.533a192.72 192.72 0 01-1.083 21.962zm0 0" transform="translate(-110.561 -111.01)" fill="url(#e)"/><path data-name="Path 25" d="M191.694 177.295a10.192 10.192 0 10-14.4 14.4l23.583 23.583q1.872-.163 3.744-.363a11.588 11.588 0 0010.293-10.293q.2-1.871.363-3.744zm0 0" transform="translate(-152.366 -152.367)" fill="url(#f)"/><path data-name="Path 26" d="M346.618 170.68l-18.98-18.98a2.423 2.423 0 10-3.394 3.394l22.035 22.035q.221-3.223.339-6.449zm0 0" transform="translate(-283.104 -132.006)" fill="url(#g)"/><path data-name="Path 27" d="M95.09 109.322c.133-.936.234-1.877.4-2.807.955-5.263 4.681-8.845 10.009-9.028 6.415-.22 12.85-.232 19.264 0a10.308 10.308 0 0110.18 10.3q.289 9.24 0 18.494a10.308 10.308 0 01-10.179 10.3c-6.414.232-12.85.237-19.264 0-5.8-.218-9.809-4.522-10.2-10.331-.034-.5-.141-1-.215-1.5v-15.43zm20.005 23.828c2.935 0 5.874.088 8.805-.02 4.6-.17 7.424-2.914 7.531-7.506q.2-8.583 0-17.174c-.107-4.591-2.936-7.4-7.531-7.5q-8.747-.185-17.5 0c-4.559.1-7.395 2.846-7.519 7.387q-.236 8.691 0 17.393c.124 4.54 2.959 7.227 7.519 7.4 2.895.108 5.8.02 8.7.02zm0 0" transform="translate(-83.271 -85.221)" fill="url(#h)"/><g data-name="Group 31" fill="#fff"><path data-name="Path 28" d="M11.819 24.101c.133-.936.234-1.877.4-2.807.955-5.263 4.681-8.845 10.009-9.028 6.415-.22 12.85-.232 19.264 0a10.308 10.308 0 0110.18 10.3q.289 9.24 0 18.494a10.308 10.308 0 01-10.179 10.3c-6.414.232-12.85.237-19.264 0-5.8-.218-9.809-4.522-10.2-10.331-.034-.5-.141-1-.215-1.5v-15.43zm20.005 23.828c2.935 0 5.874.088 8.805-.02 4.6-.17 7.424-2.914 7.531-7.506q.2-8.583 0-17.174c-.107-4.591-2.936-7.4-7.531-7.5q-8.747-.185-17.5 0c-4.559.1-7.395 2.846-7.519 7.387q-.236 8.691 0 17.393c.124 4.54 2.959 7.227 7.519 7.4 2.895.108 5.8.02 8.7.02zm0 0"/><path data-name="Path 29" d="M31.819 21.631a10.193 10.193 0 1010.193 10.192 10.193 10.193 0 00-10.193-10.192zm0 16.876a6.684 6.684 0 116.684-6.684 6.683 6.683 0 01-6.684 6.68zm0 0"/><path data-name="Path 30" d="M45.031 21.161a2.425 2.425 0 11-2.425-2.425 2.425 2.425 0 012.425 2.425zm0 0"/></g></svg>