<svg xmlns="http://www.w3.org/2000/svg" width="70" height="70"><path data-name="Path 29" d="M40.75 8.127l-.22-.253 1.428-1.516.22.253zm-.879-.505l-.11-2.274h-.329l.11 2.274zm16.911 7.455c1.428.885 6.04 4.043 6.7 4.549.769.506-1.537 2.148-1.647 4.043-.11 2.527 1.1.758 1.1.758l.659-1.39c1.537-3.033 2.855-5.433.329-7.2l-1.428-1.011s-1.867-.758-3.624-6.57a3.853 3.853 0 00-.11 3.917s-1.428-2.4-2.086-2.274c-.002.123-1.32 4.292.108 5.177zm-17.79-6.823l-1.428-1.516-.22.379 1.428 1.516zm-8.564-5.563C29.11.922 26.914 1.68 26.694 3.828c-.22 1.9 1.208 3.159 2.526 4.3a5.883 5.883 0 01.988 1.011l.11.126c.11 0 .11 0 .11-.126a4.7 4.7 0 01.879-.758.372.372 0 01.22-.126c1.208-1.137 2.745-2.4 2.526-4.3-.111-2.272-2.417-3.03-3.625-1.264zm-2.306 26.411a7.843 7.843 0 01-6.479-1.9c-.329-3.159-.659-6.444-.988-9.6-.22-2.654-1.757-4.928-4.283-5.054a4.734 4.734 0 00-4.393 4.928c.549 5.18.988 10.361 1.647 15.415L5.939 50.329l9.664.126v15.036c0 4.3 5.71 4.3 5.71 0V50.582h1.757V33.903a11.207 11.207 0 005.051.505c2.965-.378 2.965-5.685.001-5.306zm37.886 38.917c-3.075-1.137-6.259-2.274-9.334-3.538-3.953-1.516-6.369-5.56-7.687-9.982a4.612 4.612 0 01-1.648-1.008c-1.1 0-2.2-.126-3.185-.126a24.4 24.4 0 003.734 11.119c2.306 4.043-3.294 7.834-5.6 3.791A31.468 31.468 0 0138 48.561a3.4 3.4 0 013.185-2.78H45.8a39.925 39.925 0 012.417-13.39L48 36.304l3.4-5.433c-.439-.379-7.907-6.7-11.091-9.224a4.111 4.111 0 01-.988-5.181h-2.085v-4.043h.549a3.343 3.343 0 01-.22-1.011 2.524 2.524 0 011.1-2.148l1.1-1.39 1.1 1.39a2.586 2.586 0 01.879 3.159h1.318v-6.7h1.977v10.868c3.514 2.78 6.808 5.56 10.213 8.466a4.217 4.217 0 013.624 1.516c1.757 2.022 2.086 6.065 0 7.96-3.4 3.285-3.514 10.108-3.514 14.91a9.069 9.069 0 01-.22 2.78c.22.885.988 3.791 5.051 5.812 2.526.884 5.051 1.9 7.467 2.78 4.057 1.518 2.41 8.72-1.653 7.204zM41.519 11.665a2.015 2.015 0 00-.989-1.774H39.1a2.184 2.184 0 00-.988 1.769 2.671 2.671 0 00.22 1.011H41.3a2.669 2.669 0 00.219-1.006zm6.808 31.336c0-.884-.329-1.516-.659-1.516s-.659.632-.659 1.516.329 1.516.659 1.516c.44 0 .659-.632.659-1.516zm.329-3.285c0-.885-.329-1.516-.659-1.516s-.659.632-.659 1.516.329 1.516.659 1.516c.44 0 .66-.758.66-1.516zm-41.4-23c2.306.253 3.294-1.39 3.514-4.043.329-3.664-.329-6.065.22-8.339a4.858 4.858 0 011.318.253 8.43 8.43 0 00-.22 1.643c0 3.032 2.2 5.56 4.832 5.56s4.832-2.527 4.832-5.56S19.552.67 16.92.67a4.347 4.347 0 00-3.294 1.521c-3.4-4.3-7.577-1.769-5.93 3.285 1.977 6.441 3.075 10.615-.439 11.243zM2.425 27.459a1.3 1.3 0 00-2.416.758c-.11 1.263.769 2.022 1.647 2.78a4.728 4.728 0 00.769.632l.769-.632c.879-.758 1.757-1.516 1.647-2.78a1.3 1.3 0 00-2.416-.758z" fill="#8d490a"/></svg>