<svg xmlns="http://www.w3.org/2000/svg" width="33" height="33"><defs><linearGradient id="a" x1=".858" y1=".071" x2=".5" y2="1" gradientUnits="objectBoundingBox"><stop offset="0" stop-color="#6eaf0a"/><stop offset="1" stop-color="#3b5f05"/></linearGradient></defs><path d="M92.413 89.019a1.356 1.356 0 01-.045-.92q1.138-3.225 2.344-6.424a14.171 14.171 0 001.188-7.029 11.582 11.582 0 00-3.615-7.175 40.966 40.966 0 00-3.381-2.546c.091-.249.238-.638.381-1.026.234-.641.053-1.143-.487-1.343a.95.95 0 00-1.279.649c-.17.4-.321.8-.487 1.218a12.211 12.211 0 00-4.695-.313 11.873 11.873 0 00-9.906 7.518c-1.121 2.7-2.045 5.477-3.042 8.224a1.093 1.093 0 01-.642.687c-1.668.747-3.325 1.516-4.993 2.275a1.059 1.059 0 00-.766 1.011c.011.547.4.766.849.928 3.113 1.117 6.219 2.245 9.34 3.338.468.166.63.351.6.868a5.122 5.122 0 006.453 5.164 5.315 5.315 0 003.181-2.335c.162.057.309.109.457.158l9.487 3.4a1.1 1.1 0 001.306-.162c.408-.423.238-.856.026-1.3a185.98 185.98 0 01-2.283-4.866zM78.1 92.285a3.231 3.231 0 01-2.4-3.323c1.97.7 3.9 1.392 5.834 2.082a3.071 3.071 0 01-3.434 1.241z" transform="translate(-62.992 -62.483)" fill="url(#a)"/></svg>