<svg xmlns="http://www.w3.org/2000/svg" width="92.414" height="92.414"><g data-name="Group 312"><path data-name="Path 732" d="M92.414 46.207a46.291 46.291 0 11-14.926-34 46.207 46.207 0 0114.926 34z" fill="#f0cd00"/><path data-name="Path 733" d="M92.414 46.207a46.205 46.205 0 01-44.487 46.175 46.207 46.207 0 010-92.35 46.205 46.205 0 0144.487 46.175z" fill="#ffde50"/><path data-name="Path 734" d="M77.488 12.202L12.2 77.49a46.4 46.4 0 01-5.852-7.893L69.597 6.35a46.19 46.19 0 017.891 5.852z" fill="#ffea94"/><path data-name="Path 735" d="M89.223 29.314L29.308 89.229a46.145 46.145 0 01-11.7-6.722l64.899-64.894a46.061 46.061 0 016.716 11.701z" fill="#ffea94"/><path data-name="Path 736" d="M82.113 46.207a35.905 35.905 0 01-71.808.441v-.441a35.906 35.906 0 0135.902-35.906h.443a35.739 35.739 0 0120.241 6.548 36.145 36.145 0 019.89 10.526 35.732 35.732 0 015.332 18.832z" fill="#faa300"/><path data-name="Path 737" d="M71.594 20.817L20.817 71.594a35.775 35.775 0 01-10.512-24.946v-.441a35.906 35.906 0 0135.902-35.906h.443a35.739 35.739 0 0120.241 6.548 36.235 36.235 0 014.703 3.968z" fill="#ffbd00"/><path data-name="Path 738" d="M82.112 46.207a35.907 35.907 0 01-35.906 35.906q-1.021 0-2.027-.057a35.907 35.907 0 000-71.7q1.007-.057 2.027-.057a35.907 35.907 0 0135.906 35.908z" fill="#f68e00"/><g data-name="Group 311" transform="translate(10.757 19.956)" fill="#f68e00"><path data-name="Path 739" d="M13.99 36.63H8.952a8.953 8.953 0 01-8.383-12.1 3.52 3.52 0 016.592 2.472 1.912 1.912 0 001.79 2.584h5.038a.413.413 0 00.409-.474L10.705 4.033A3.52 3.52 0 0114.188 0h3.9a3.52 3.52 0 01.177 7.036l3.1 21.052a7.454 7.454 0 01-7.374 8.54z"/><path data-name="Path 740" d="M39.445 32.123h-6.129a7.492 7.492 0 01-7.37-6.364l-2.1-14.284a3.52 3.52 0 116.965-1.026l2.1 14.284a.411.411 0 00.4.349h2.608v-2.524a3.52 3.52 0 117.04 0v6.044a3.52 3.52 0 01-3.514 3.521z"/><path data-name="Path 741" d="M36.007 52.2a3.521 3.521 0 01-.561-7l8.773-1.428 7.321-11.4a3.573 3.573 0 00-.053-3.947l-4.853-7.129a3.52 3.52 0 115.82-3.962l4.853 7.129a10.6 10.6 0 01.157 11.713l-8.169 12.72a3.52 3.52 0 01-2.4 1.572l-10.322 1.68a3.549 3.549 0 01-.566.052z"/><circle data-name="Ellipse 17" cx="2.519" cy="2.519" r="2.519" transform="translate(25.937 36.055)"/><circle data-name="Ellipse 18" cx="2.519" cy="2.519" r="2.519" transform="translate(34.196 36.055)"/></g></g><g data-name="Group 313" transform="translate(16.415 19.956)" fill="#ffea94"><path data-name="Path 742" d="M13.99 36.63H8.952a8.953 8.953 0 01-8.383-12.1 3.52 3.52 0 016.592 2.472 1.912 1.912 0 001.79 2.584h5.038a.413.413 0 00.409-.474L10.704 4.029a3.52 3.52 0 013.483-4.033h3.9a3.52 3.52 0 01.177 7.036l3.1 21.054a7.454 7.454 0 01-7.374 8.54z"/><path data-name="Path 743" d="M39.445 32.123h-6.129a7.492 7.492 0 01-7.37-6.364l-2.1-14.284a3.52 3.52 0 116.965-1.026l2.1 14.284a.411.411 0 00.4.349h2.608v-2.524a3.52 3.52 0 117.04 0v6.044a3.52 3.52 0 01-3.514 3.521z"/><path data-name="Path 744" d="M36.005 52.2a3.521 3.521 0 01-.561-7l8.773-1.428 7.321-11.4a3.573 3.573 0 00-.053-3.947l-4.853-7.129a3.52 3.52 0 115.82-3.962l4.853 7.129a10.6 10.6 0 01.157 11.713l-8.169 12.72a3.52 3.52 0 01-2.4 1.572l-10.322 1.68a3.55 3.55 0 01-.566.052z"/><circle data-name="Ellipse 19" cx="2.519" cy="2.519" r="2.519" transform="translate(25.937 36.055)"/><circle data-name="Ellipse 20" cx="2.519" cy="2.519" r="2.519" transform="translate(34.196 36.055)"/></g></svg>