<svg xmlns="http://www.w3.org/2000/svg" width="106.927" height="70.056"><path data-name="Path 790" d="M105.083 70.056H1.844A1.844 1.844 0 010 68.212V1.844A1.844 1.844 0 011.844 0h103.24a1.844 1.844 0 011.844 1.844v66.368a1.844 1.844 0 01-1.845 1.844z" fill="#73af00"/><g data-name="Group 344" fill="#f5f5f5"><path data-name="Path 791" d="M22.125 23.809c.182 1.165.886 1.53 1.5 1.482a1.5 1.5 0 001.355-1.413v-4a.363.363 0 01.727 0v4.014a1.452 1.452 0 001.993 1.349l.363-.145c.033 3.355-.171 6.3-.174 6.358a.727.727 0 00.673.776h.053a.727.727 0 00.724-.675c.017-.236.241-3.465.174-7.041l.22-.088a.729.729 0 01.594.025 2.076 2.076 0 002.4-.389l.131-.131a2.169 2.169 0 00.526-2.231l-.619-1.856a.727.727 0 00.539-1.345l-1.461-.722a.727.727 0 00-1.015.88l1.169 3.508a.724.724 0 01-.175.744l-.131.131a.624.624 0 01-.719.116 2.173 2.173 0 00-1.51-.151 25.064 25.064 0 00-.888-6.261.727.727 0 00-1.379.46 24.985 24.985 0 01.833 6.343l-.87.348v-4.018a1.817 1.817 0 10-3.634 0v3.518l-.741-3.662a.727.727 0 10-1.424.288z"/><path data-name="Path 792" d="M23.524 17.701a.726.726 0 00.727-.727v-.727a.727.727 0 00-1.454 0v.727a.727.727 0 00.727.727z"/><path data-name="Path 793" d="M30.791 16.975h.727a.727.727 0 000-1.454h-.727a.727.727 0 000 1.454z"/><path data-name="Path 794" d="M26.057 26.525l-3.634 2.18a.727.727 0 10.748 1.246l3.634-2.18a.727.727 0 10-.748-1.246z"/><path data-name="Path 795" d="M35.854 27.81l.017-.011a1.658 1.658 0 00.335.683 1.428 1.428 0 001.238.481 2 2 0 001.512-.795 1.319 1.319 0 00.153.091 1.376 1.376 0 001.28-.041 2.759 2.759 0 001.3-2.558.743.743 0 00-.757-.688.729.729 0 00-.7.755c0 .009.017.872-.511 1.192a1.77 1.77 0 01-.226-.613.727.727 0 00-1.444.12c0 .106-.024 1.038-.744 1.116a1.775 1.775 0 010-.951.727.727 0 00-1.116-.769l-.406.276c-.193-4.214-.636-9.125-.642-9.188a.727.727 0 10-1.447.132c.006.067.519 5.749.678 10.088-.037.035-.075.074-.112.108a1.874 1.874 0 00-1.591-1.25 2.652 2.652 0 00-2.56 1.62 1.719 1.719 0 00.556 2.167 2.422 2.422 0 002.167.1 6.077 6.077 0 01-1.182 2.24 3.049 3.049 0 01-2.322 1.183 1.909 1.909 0 01-1.411-.6 4.15 4.15 0 01-.768-2.6.727.727 0 00-.686-.764.712.712 0 00-.766.686 5.574 5.574 0 001.141 3.653 3.333 3.333 0 002.433 1.079h.146a4.428 4.428 0 003.335-1.691 7.517 7.517 0 001.664-3.725 8.236 8.236 0 01-3.487 6.525 3.629 3.629 0 01-3.64.266 3.117 3.117 0 01-1.6-3.074.727.727 0 00-1.442-.18 4.564 4.564 0 002.4 4.557 4.94 4.94 0 002.2.524 5.378 5.378 0 002.85-.859 9.662 9.662 0 004.174-7.765c.005-.47-.004-.981-.019-1.52zm-4.382.749c-.13-.086-.028-.36-.006-.415a1.235 1.235 0 011.014-.715.536.536 0 01.058 0c.093.009.34.032.446.581.011.058.021.118.028.179-.81.478-1.353.493-1.54.37z"/><path data-name="Path 796" d="M23.89 35.243a.728.728 0 00-.993.258 1.493 1.493 0 01-.123.172.936.936 0 01-.024-.06 4.887 4.887 0 01.022-2.466.727.727 0 00-1.4-.375 6.258 6.258 0 00.021 3.35c.334.889.846 1.113 1.217 1.143h.1a1.909 1.909 0 001.448-1.038.725.725 0 00-.268-.984z"/><path data-name="Path 797" d="M37.302 22.061a.721.721 0 00.448-.155l3.664-2.876a.7.7 0 00.12-.141 1.82 1.82 0 10-2.089-.163l-2.593 2.036a.726.726 0 00.449 1.3zm3.3-5.087a.363.363 0 11-.363.363.364.364 0 01.363-.363z"/><path data-name="Path 798" d="M39.742 21.372a.726.726 0 00-.92.459 2.221 2.221 0 00.283 2.143 1.466 1.466 0 001.086.414 3.193 3.193 0 001-.185.727.727 0 10-.46-1.378 2.519 2.519 0 01-.593.127 1.391 1.391 0 01.06-.664.725.725 0 00-.456-.916z"/><path data-name="Path 799" d="M48.059 18.368a.727.727 0 00.9-.494l.424-1.453a.729.729 0 10-1.4-.407l-.424 1.453a.727.727 0 00.5.901z"/><path data-name="Path 800" d="M43.823 18.283a.727.727 0 10.734-1.255c-.146-.085-.126-.326-.121-.373a.57.57 0 01.334-.485.727.727 0 00-.432-1.388 2 2 0 00-1.346 1.708 1.792 1.792 0 00.831 1.793z"/><path data-name="Path 801" d="M38.058 30.055a.727.727 0 00-.136 1.441 1.365 1.365 0 01.136.74.727.727 0 101.454 0c-.001-2.156-1.395-2.181-1.454-2.181z"/><path data-name="Path 802" d="M50.387 27.046a1.675 1.675 0 00.273.022 2.484 2.484 0 001.719-.859.727.727 0 00-1.027-1.027c-.435.435-.669.444-.728.431-.139-.02-.264-.2-.292-.25a.729.729 0 00-1.3.658 1.965 1.965 0 001.355 1.025z"/><path data-name="Path 803" d="M62.74 21.939c0-.011-.009-.022-.013-.032a.727.727 0 00-1.377.465 1.628 1.628 0 001.182 1.133 1.215 1.215 0 00.16.011 1.779 1.779 0 001.405-.97.727.727 0 10-1.209-.806 2.2 2.2 0 01-.148.199z"/><path data-name="Path 804" d="M61.313 35.142c0-3.1-.136-6.006-.325-8.554a36.8 36.8 0 012.552 5.176.727.727 0 101.361-.511 48.132 48.132 0 00-4.2-7.965c-.4-3.915-.842-6.4-.85-6.444a.727.727 0 00-1.43.26c.006.032.235 1.312.509 3.466a119.068 119.068 0 00-1.512-2.191l.036.011a.727.727 0 10.46-1.378l-2.18-.727a.723.723 0 00-.819.264.733.733 0 00-.106.223 1.586 1.586 0 00-1.517-.364 1.237 1.237 0 00-.694 1.293 6.565 6.565 0 00.5 2.059c.428 1.212.7 2.1.243 2.529a.794.794 0 01-.745.262c-.448-.114-.892-.71-1.187-1.6a.676.676 0 00-.058-.1 12.358 12.358 0 00-.222-4.021.727.727 0 10-1.425.285c.474 2.373.332 4.309-.381 5.179a1.3 1.3 0 01-1.087.492.418.418 0 01-.348-.162c-.573-.661-.571-2.793-.386-4.1a.727.727 0 00-.72-.829c-1.25 0-1.724 1.422-2.143 2.677-.183.552-.525 1.577-.764 1.683-.44 0-.724-1.292-.727-2.181a.727.727 0 00-.727-.725.726.726 0 00-.726.726c0 1.676.571 3.634 2.18 3.634 1.2 0 1.684-1.306 2.09-2.519a4.555 4.555 0 00.824 2.583 1.864 1.864 0 001.446.663 2.765 2.765 0 002.211-1.024 3.342 3.342 0 00.27-.4 2.712 2.712 0 001.523 1.143 2.094 2.094 0 00.513.065 2.305 2.305 0 001.583-.676 2.158 2.158 0 00.243-.293 1.96 1.96 0 00.537.081 2.941 2.941 0 001.507-.463.727.727 0 00-.78-1.226 1.541 1.541 0 01-.823.216 7.5 7.5 0 00-.551-2.388 10.074 10.074 0 01-.376-1.215c.06.051.118.1.171.154a.726.726 0 001.027 0 .7.7 0 00.105-.159c.753 1.038 2.3 3.218 3.9 5.732.3 3.09.571 7.031.571 11.354a.727.727 0 001.454 0z"/><path data-name="Path 805" d="M62.04 19.155a.727.727 0 001.454 0 7.41 7.41 0 00-.8-2.505.727.727 0 00-1.3.65 6.453 6.453 0 01.646 1.855z"/><path data-name="Path 806" d="M58.733 35.222a.726.726 0 00-.975.32 2.084 2.084 0 01-.3.431 4.06 4.06 0 01.191-1.344.727.727 0 00-1.209-.727l-1.453 1.453a.727.727 0 101.028 1.027l.037-.037a1.5 1.5 0 00.389.764 1.33 1.33 0 00.944.417 1.3 1.3 0 00.2-.016 2.365 2.365 0 001.473-1.316.726.726 0 00-.325-.972z"/><path data-name="Path 807" d="M58.451 29.374h-5.122q.068-.271.14-.517c2.042-.425 3.256-1.084 3.613-1.964a1.625 1.625 0 00-.273-1.631 1.8 1.8 0 00-1.837-.784c-1.033.209-1.953 1.322-2.613 3.1a8.357 8.357 0 00-4.2 1.814 11.258 11.258 0 00-1.507-4.831.727.727 0 10-1.209.806 10.494 10.494 0 011.331 5.411c0 3.317-2.645 5.814-4.36 5.814-.816 0-1.173-.97-1.33-1.79 1.68-1.177 3.161-2.539 3.489-3.848a5.779 5.779 0 00-.483-3.939l-.054-.126.045.043a.726.726 0 001.027-1.027c-.425-.425-1.25-1.093-2-.779a1.237 1.237 0 00-.694 1.293 3.09 3.09 0 00.339 1.168 4.392 4.392 0 01.41 3.016 6.149 6.149 0 01-2.379 2.624.714.714 0 00-.55-.267.726.726 0 00-.726.726c0 .131.006.27.014.414a38.22 38.22 0 01-4.676 2.558.727.727 0 00.3 1.388.718.718 0 00.3-.065 41.865 41.865 0 004.34-2.324c.367 1.246 1.144 2.39 2.626 2.39 1.743 0 3.721-1.426 4.862-3.554a4.22 4.22 0 00.485.694c1.829 2.109 5.4 2.133 5.553 2.133a.727.727 0 00.052-1.451 1.556 1.556 0 01-.907-.441 1.246 1.246 0 01-.238-.954c.074-.9 2.963-1.565 5.509-1.6a.727.727 0 00.674-.483l.727-2.044a.728.728 0 00-.684-.97zm-3.19-3.47a.264.264 0 01.055-.007c.07 0 .179.034.325.231.028.037.116.163.094.219-.083.206-.585.546-1.63.854.46-.898.91-1.248 1.156-1.298zm-4.389 9.553a4.449 4.449 0 01-2.012-1.223 3.089 3.089 0 01-.645-2.559 2.137 2.137 0 01.152-.308c1.023-.094 3.757.31 3.947 1.092a2.44 2.44 0 00-1.536 1.9 3.063 3.063 0 00.095 1.097z"/><path data-name="Path 808" d="M66.363 18.924l-.727-2.18a.727.727 0 00-1.413.3c.5 5.015 1.45 14.794 1.45 15.916 0 1.007-1.791 2.99-4.685 4.437a.727.727 0 00.65 1.3c2.644-1.322 5.489-3.681 5.489-5.737 0-1.074-.743-8.8-1.168-13.139a.727.727 0 00.404-.897z"/><path data-name="Path 809" d="M72.427 25.482a.727.727 0 001.218-.693 3.669 3.669 0 01-.1-1.411.738.738 0 00.755-.623.727.727 0 00-.617-.822 1.312 1.312 0 00-1.2.4 1.663 1.663 0 00-.366.78l-.842-.842a.727.727 0 10-1.027 1.027z"/><path data-name="Path 810" d="M74.061 26.239l-2.725 1.953a.727.727 0 10.847 1.181l2.721-1.952a.727.727 0 10-.847-1.181z"/><path data-name="Path 811" d="M73.825 28.972a.727.727 0 00.064.964 2.015 2.015 0 01.147 1.046.727.727 0 00.7.752h.026a.727.727 0 00.726-.7c.053-1.483-.432-2.025-.644-2.189a.726.726 0 00-1.019.127z"/><path data-name="Path 812" d="M80.162 34.324a.726.726 0 00.727-.727c0-1.072-.055-2.269-.145-3.515a26.526 26.526 0 011.7 3.165.725.725 0 00.668.441.716.716 0 00.286-.059.726.726 0 00.381-.954 39.988 39.988 0 00-3.325-5.733 158.506 158.506 0 00-.947-7.156.7.7 0 00.454-.113.717.717 0 00.322-.657.71.71 0 00.08.209 2.643 2.643 0 01.265 1.779.727.727 0 00.565.859.765.765 0 00.148.015.728.728 0 00.711-.58 4.119 4.119 0 00-.462-2.854.729.729 0 00-1-.223.719.719 0 00-.325.657.7.7 0 00-.082-.21l-1.227-1.908a.727.727 0 00-1.327.519c.01.057.566 3.246 1.058 7.09a154.162 154.162 0 00-1.654-2.29c-.088-1.1-.176-2.116-.252-2.957a.737.737 0 00.118-.047.727.727 0 00.325-.975l-.727-1.453a.727.727 0 00-1.373.4c.087.867.177 1.827.265 2.836-.46-.606-.885-1.161-1.249-1.63a.727.727 0 00-.149-1.2l-1.453-.727a.727.727 0 00-.892 1.1c.039.049 1.829 2.292 3.969 5.187.371 4.8.619 9.8.269 10.843-.064.191-.175.417-.28.425-.439.061-1.488-.921-2.014-1.974a1.012 1.012 0 00-.973-.659c-.781.048-1.086.908-1.64 2.468a10.231 10.231 0 01-1.444 3.076 8.254 8.254 0 01-.9-2.861.723.723 0 001.4-.245c0-1.084-.758-9.337-1.181-13.861a.726.726 0 00.417-.9l-.727-2.18a.727.727 0 00-1.413.3c.494 5.184 1.42 15.2 1.449 16.58 0-.013 0-.025-.006-.037a.727.727 0 10-1.439.206c.212 1.485.755 4.039 2 4.455a1.213 1.213 0 00.387.063 1.428 1.428 0 001.023-.474 10.48 10.48 0 001.8-3.631c.107-.3.233-.657.352-.962.667.974 1.83 2.186 3.008 2.091a1.784 1.784 0 001.556-1.415c.386-1.159.234-5.2-.027-9.073.612.858 1.225 1.737 1.81 2.6.227 2.176.389 4.357.389 6.147a.728.728 0 00.731.729z"/><path data-name="Path 813" d="M85.678 30.502c-.515-3.835-1.232-8.278-1.686-11a.715.715 0 00.609-.129.726.726 0 00.137-1.018l-1.317-1.726a.727.727 0 00-1.294.566c.013.074 1.309 7.535 2.111 13.505.306 2.282-.141 4.321-1.2 5.453a3.215 3.215 0 01-2.666.993.727.727 0 10-.091 1.45c.123.008.244.011.364.011a4.586 4.586 0 003.457-1.465c1.371-1.472 1.941-3.891 1.576-6.64z"/><path data-name="Path 814" d="M77.683 35.292a.736.736 0 00.036 1.021.306.306 0 01.087.151.34.34 0 01-.11.162.727.727 0 101.028 1.027 1.649 1.649 0 00.535-1.24 1.73 1.73 0 00-.57-1.184.72.72 0 00-1.006.063z"/><path data-name="Path 815" d="M75.121 51.23h-5.087v-.727a.727.727 0 00-1.454 0v.727H30.064c1.453 1.453 4.36 2.18 6.54 2.18H68.58v1.453a.727.727 0 00.727.727h5.814a2.18 2.18 0 100-4.36zm0 2.907h-5.087v-.727h5.814l-.131-.391a.705.705 0 01.131.391.727.727 0 01-.727.726z"/></g></svg>