<svg xmlns="http://www.w3.org/2000/svg" width="70" height="70"><g data-name="Group 37"><g data-name="Group 36" fill="#8d490a"><path data-name="Path 34" d="M59.756 10.5c0-7.753-1.34-10.5-5.122-10.5H15.366c-3.782 0-5.122 2.747-5.122 10.5V35h49.512z"/><path data-name="Path 35" d="M66.585 17.5c-1.886 0-3.415 3.134-3.415 7V42H6.829V24.5c0-3.866-1.529-7-3.415-7S0 20.634 0 24.5v28c0 3.866 1.529 7 3.415 7h1.707V70h5.122V59.5h49.512V70h5.122V59.5h1.685c1.891.008 3.428-3.123 3.437-7v-28c0-3.866-1.529-7-3.415-7z"/></g></g></svg>