<svg xmlns="http://www.w3.org/2000/svg" width="33.679" height="33.581"><path d="M12.491 16.184c1.215 0 2.2-1.343 2.2-3s-.984-3-2.2-3-2.2 1.343-2.2 3 .985 3 2.2 3zm-4.9 2.081c-.04-.469-.2 7.973 9.264 8.482 9.268-.382 9.268-8.482 9.268-8.482a45.978 45.978 0 01-18.528 0zm17.362 1.693s-1.022 2.993-7.718 2.993c-5.355 0-8.233-1.779-8.567-2.993.005 0 9.038 1.612 16.289 0zM16.541 0C7.076 0 0 7.673 0 17.139s7.374 16.442 16.839 16.442 16.84-6.977 16.84-16.442A17.137 17.137 0 0016.541 0zm.3 31.083c-8.057 0-14.334-5.938-14.334-13.994S8.53 2.5 16.587 2.5a14.589 14.589 0 0114.589 14.589c-.002 8.055-6.278 13.994-14.335 13.994zm4.749-14.9c1.215 0 2.2-1.343 2.2-3s-.984-3-2.2-3-2.2 1.343-2.2 3 .985 3.001 2.2 3.001z" fill="#9e4f06" opacity=".67"/></svg>