<svg xmlns="http://www.w3.org/2000/svg" width="50" height="50.001"><g transform="translate(0 .001)" fill="#383838"><ellipse data-name="Ellipse 72" cx="5.355" cy="6.25" rx="5.355" ry="6.25" transform="translate(19.645 37.5)"/><path data-name="Path 873" d="M.769 8.701a38.1 38.1 0 0148.462 0 2.325 2.325 0 01.446 2.917 1.639 1.639 0 01-2.5.521 34.848 34.848 0 00-44.357 0 1.639 1.639 0 01-2.5-.521 2.325 2.325 0 01.449-2.917zm13.654 18.591a21.363 21.363 0 0121.152 0 2.278 2.278 0 01.7 2.678 1.7 1.7 0 01-2.216 1.072 18.29 18.29 0 00-18.118 0 1.7 1.7 0 01-2.218-1.072 2.278 2.278 0 01.7-2.678z"/><path data-name="Path 874" d="M7.15 17.97a31.776 31.776 0 0135.7 0 2.3 2.3 0 01.669 2.865 1.668 1.668 0 01-2.454.781 28.643 28.643 0 00-32.13 0 1.668 1.668 0 01-2.454-.781 2.3 2.3 0 01.669-2.865z"/></g></svg>