<svg xmlns="http://www.w3.org/2000/svg" width="50" height="45"><path d="M25.3.076a.365.365 0 00-.446 0c-2.989 2.469-11.288 11.044-2.008 20.226.134.13.669.52.758-.13a.251.251 0 010-.043l1.428-9.095 1.428 9.008v.13c.134.563.535.3.714.173C36.54 11.207 28.286 2.676 25.3.076zm24.669 17.108v-.043a.341.341 0 00-.134-.433c-3.48-1.862-14.589-6.67-20.3 4.894-.045.173-.268.78.4.65l9.28-1.732-8.209 4.331-.134.043c-.535.3-.089.606.089.693 11.912 5.544 17.445-4.851 18.961-8.445zm-49.88.043a.341.341 0 01.134-.433c3.435-1.906 14.5-6.67 20.255 4.937.045.13.268.736-.4.65l-9.325-1.732 8.253 4.327h.094c.535.3.134.606-.045.736C7.094 31.259 1.562 20.865 0 17.227zm42.162 27.718a.354.354 0 00.357-.3c.357-3.811.312-15.591-12.894-15.981-.178 0-.8.087-.446.606l5.4 7.579-7.368-5.546-.089-.087c-.535-.346-.625.13-.669.346-.312 12.863 11.689 13.556 15.7 13.426zm-34.4 0h-.045a.354.354 0 01-.357-.3c-.312-3.811-.312-15.591 12.938-15.981.134 0 .8.087.446.606L15.3 36.89l7.451-5.587.089-.087c.491-.346.625.13.625.346.312 12.863-11.689 13.556-15.66 13.426z" fill="#383838"/></svg>