<svg xmlns="http://www.w3.org/2000/svg" width="50" height="45"><path d="M4.496 4.018A4.255 4.255 0 018.953 0a4.255 4.255 0 014.457 4.018 4.255 4.255 0 01-4.457 4.018 4.255 4.255 0 01-4.457-4.018zm11.59 6.428a50.981 50.981 0 00-7.131-.8 50.982 50.982 0 00-7.131.8c-1.783.4-1.917 1.366-1.783 2.411l1.513 12.254a1.672 1.672 0 00.579 1.045l.8.723a1.666 1.666 0 01.579 1.085l1.6 15.428A1.9 1.9 0 007.125 45h3.655a1.9 1.9 0 002.006-1.608l1.515-15.428a1.666 1.666 0 01.579-1.085l.847-.723a1.659 1.659 0 00.535-1.045l1.6-12.254c.134-1.045.045-2.009-1.738-2.411zM25 19.687a3.4 3.4 0 003.566-3.214A3.4 3.4 0 0025 13.259a3.4 3.4 0 00-3.566 3.214 3.4 3.4 0 003.564 3.214zm4.992.964A36.224 36.224 0 0025 20.089a36.223 36.223 0 00-4.992.562c-1.248.281-1.337.924-1.2 1.647l1.025 8.437a1.173 1.173 0 00.446.763l.535.482a1.167 1.167 0 01.446.8l1.07 11.129A1.343 1.343 0 0023.706 45h2.63a1.337 1.337 0 001.382-1.125l1.114-11.129a1.173 1.173 0 01.446-.763l.535-.482a1.167 1.167 0 00.4-.723l1.07-8.437c.089-.763 0-1.406-1.248-1.687zM41.044 8.036a4.255 4.255 0 004.457-4.018 4.481 4.481 0 00-8.914 0 4.255 4.255 0 004.457 4.018zm7.131 2.411a50.982 50.982 0 00-7.131-.8 50.982 50.982 0 00-7.131.8c-1.783.4-1.917 1.366-1.783 2.411l1.515 12.254a1.672 1.672 0 00.579 1.045l.8.723a1.666 1.666 0 01.579 1.085l1.6 15.428A1.9 1.9 0 0039.217 45h3.655a1.9 1.9 0 001.961-1.607l1.6-15.428a1.666 1.666 0 01.579-1.085l.8-.723a1.672 1.672 0 00.579-1.045l1.56-12.254c.134-1.045.045-2.009-1.738-2.411z" fill="#383838"/></svg>