<svg xmlns="http://www.w3.org/2000/svg" width="108.116" height="110.731"><g transform="translate(-1.999 -1.76)" fill="#5f6368"><path data-name="Path 49" d="M66.045 112.492h-20a7.838 7.838 0 01-7.836-6.863l-1.455-10.215a48.664 48.664 0 01-4.269-2.486l-9.728 3.891a7.975 7.975 0 01-9.782-3.513L3.086 76.175a8 8 0 011.946-10.16l8.268-6.43c-.054-.811-.108-1.621-.108-2.486 0-.811.054-1.675.108-2.486l-8.214-6.431a7.772 7.772 0 01-2-10.16l10-17.239a7.776 7.776 0 019.673-3.4l9.782 3.945a57.221 57.221 0 014.215-2.486l1.457-10.327A7.868 7.868 0 0146 1.76h20a7.838 7.838 0 017.836 6.863l1.459 10.214a48.66 48.66 0 014.269 2.486l9.728-3.891a8.022 8.022 0 019.836 3.513l9.944 17.185a7.941 7.941 0 01-1.946 10.16L98.9 54.721c.054.811.108 1.621.108 2.486s-.054 1.675-.108 2.486l8.214 6.431a7.924 7.924 0 012 10.052l-10.052 17.4a7.823 7.823 0 01-9.728 3.4l-9.728-3.891a57.221 57.221 0 01-4.215 2.486L73.935 105.9a7.937 7.937 0 01-7.89 6.593zm-17.456-10.809H63.5l2-13.781 2.864-1.189A33.829 33.829 0 0075.61 82.5l2.432-1.837L90.9 85.849l7.458-12.97-10.967-8.539.378-3.026a35.965 35.965 0 00.324-4.215 35.083 35.083 0 00-.324-4.215l-.378-3.026 10.97-8.539-7.511-12.97-12.916 5.188-2.434-1.892a32.226 32.226 0 00-7.188-4.161L65.5 26.295l-2-13.781H48.589l-2 13.781-2.863 1.135a34.193 34.193 0 00-7.242 4.27l-2.432 1.783-12.862-5.134-7.512 12.916L24.649 49.8l-.378 3.026a37.83 37.83 0 00-.324 4.269 27.161 27.161 0 00.324 4.215l.378 3.026-10.97 8.539 7.458 12.97 12.916-5.188 2.432 1.891a30.266 30.266 0 007.188 4.161l2.863 1.191 2.054 13.781z"/><circle data-name="Ellipse 7" cx="18.915" cy="18.915" r="18.915" transform="translate(37.132 38.184)"/></g></svg>