<svg xmlns="http://www.w3.org/2000/svg" width="50" height="45"><path d="M24.997 12.616A18.593 18.593 0 0129.55 0h15.89a18.636 18.636 0 014.553 12.616c0 8.2-4.642 15.027-10.713 16.152v13.018h5.356a1.616 1.616 0 110 3.214H30.353a1.616 1.616 0 110-3.214h5.356V28.768c-6.07-1.125-10.712-7.956-10.712-16.152zm18.658-9.4h-12.32a16.21 16.21 0 00-2.767 9.4v.241h17.854v-.241a16.12 16.12 0 00-2.767-9.402zM0 14.464a5.11 5.11 0 005.356 4.821h1.607L5.446 43.312a1.519 1.519 0 00.49 1.189 1.886 1.886 0 001.3.5h3.392a1.886 1.886 0 001.3-.5 1.519 1.519 0 00.49-1.189l-1.526-24.026h1.607a5.11 5.11 0 005.356-4.821L16.116.362A.432.432 0 0015.668 0h-.937a.426.426 0 00-.446.4v7.634A1.7 1.7 0 0112.5 9.641h-2.144L9.816.4A.426.426 0 009.37 0h-.893a.426.426 0 00-.446.4L7.54 9.641H5.357a1.7 1.7 0 01-1.785-1.607V.4a.426.426 0 00-.446-.4h-.937a.432.432 0 00-.446.362z" fill="#383838"/></svg>