<svg xmlns="http://www.w3.org/2000/svg" width="50" height="45"><path d="M.327 29.624a1.708 1.708 0 011.1-.879 1.628 1.628 0 011.356.27c9.367 7.032 15.388 4.219 22.3 1.031 6.466-3.051 13.736-6.422 23.906-.651a2.166 2.166 0 01.8 2.766 1.782 1.782 0 01-1.008 1.027 1.663 1.663 0 01-1.4-.089c-8.7-5.016-14.63-2.25-20.964.7-3.881 1.828-7.85 3.7-12.489 3.7A21.661 21.661 0 01.862 32.437a2.229 2.229 0 01-.535-2.813zm48.617 7.271c-10.125-5.813-17.4-2.344-23.863.656-6.914 3.235-12.935 6.047-22.3-1.031a1.63 1.63 0 00-1.381-.3 1.71 1.71 0 00-1.116.9 2.229 2.229 0 00.535 2.813 21.656 21.656 0 0013.158 5.063c4.594 0 8.564-1.875 12.489-3.7 6.245-2.953 12.221-5.719 20.919-.75a1.663 1.663 0 001.4.089 1.782 1.782 0 001.008-1.027 2.167 2.167 0 00-.8-2.719zM41.05 18.749a5.632 5.632 0 10-5.352-5.625 5.494 5.494 0 005.352 5.625zm-15.968 7.5c3.211-1.547 6.78-3.281 10.616-3.844 0 0-1.784-4.125-3.033-6.516L24.632 2.201C23.517.185 21.287-.612 18.611.513L8.887 4.685a2.955 2.955 0 00-1.555 3.657 2.756 2.756 0 001.459 1.6 2.557 2.557 0 002.109-.007l7.85-3.516a1.742 1.742 0 012.23.8l2.676 6.188-16.5 12.844c7.85 4.594 11.731 2.953 17.975 0z" fill="#383838"/></svg>