<svg xmlns="http://www.w3.org/2000/svg" width="70" height="70"><g data-name="Group 25" fill="#8d490a"><ellipse data-name="Ellipse 5" cx="8.995" cy="7.848" rx="8.995" ry="7.848" transform="translate(35.416)"/><path data-name="Path 33" d="M66.862 26.99c-8.038-.721-15.831-8.31-17.792-9.361a10.227 10.227 0 00-3.988-1.44 8.151 8.151 0 00-1.968-.079 8.634 8.634 0 00-4.543 1.522 13.912 13.912 0 00-1.586 1.271c-2.652 2.4-10 9.491-13.659 17.514a2.761 2.761 0 00.712 3.213l-4.3 6.679-6.052-2.966a1.623 1.623 0 00-2.045.5L.192 61.499a1.227 1.227 0 00.575 1.785l4.581 2.248a2.716 2.716 0 00.548 3.572 3.8 3.8 0 004.865.035 2.728 2.728 0 00.295-3.988l6.254-9.574 4.382-6.812 5.431-8.214a3.44 3.44 0 002.7-1.882 41.885 41.885 0 016.261-9.393l1.091 10.94a5.029 5.029 0 001.65 3.214c-2.813 4.451-10.383 16.621-13.116 20.756a3.623 3.623 0 001.629 5.3 4.986 4.986 0 002.536.51 4.552 4.552 0 003.533-1.933c2.546-3.851 9.188-15.54 12.1-19.933a169.947 169.947 0 0111.362 19.567 4.512 4.512 0 004.067 2.309 4.968 4.968 0 001.8-.333 3.7 3.7 0 002.263-5.112 167.027 167.027 0 00-12.764-21.699 4.933 4.933 0 001.387-3.891l-1.033-10.362c2.991 2.084 6.895 3.839 13.56 4.441.124.012.244.017.365.017a3.352 3.352 0 003.469-2.732 3.188 3.188 0 00-3.121-3.345zM8.279 68.19a1.1 1.1 0 111.253-1.093 1.182 1.182 0 01-1.253 1.091z"/></g></svg>