<svg data-name="twitter (1)" xmlns="http://www.w3.org/2000/svg" xmlns:xlink="http://www.w3.org/1999/xlink" width="63.637" height="63.637"><defs><linearGradient id="b" x1=".332" y1=".141" x2=".585" y2=".682" gradientUnits="objectBoundingBox"><stop offset="0" stop-color="#00c3ff"/><stop offset="1" stop-color="#00b0ed"/></linearGradient><linearGradient id="a" x1=".738" y1=".628" x2="-.899" y2="-.25" gradientUnits="objectBoundingBox"><stop offset="0" stop-color="#00b0ed" stop-opacity="0"/><stop offset="1" stop-color="#00a2ce"/></linearGradient><linearGradient id="c" x1=".5" y1=".27" x2=".5" y2=".926" xlink:href="#a"/><linearGradient id="d" x1=".946" y1=".922" x2=".342" y2=".273" xlink:href="#a"/></defs><path data-name="Path 15" d="M52.255 62.547a192.213 192.213 0 01-40.872 0A11.587 11.587 0 011.089 52.254a192.207 192.207 0 010-40.872A11.587 11.587 0 0111.382 1.089a192.208 192.208 0 0140.872 0 11.587 11.587 0 0110.294 10.293 192.208 192.208 0 010 40.872 11.587 11.587 0 01-10.293 10.293zm0 0" transform="translate(0 .001)" fill="url(#b)"/><path data-name="Path 16" d="M84.337 38.935A10.282 10.282 0 0075.2 29.8a170.627 170.627 0 00-36.269 0 10.283 10.283 0 00-9.131 9.135 170.621 170.621 0 000 36.268 10.283 10.283 0 009.134 9.134 170.559 170.559 0 0036.268 0 10.282 10.282 0 009.135-9.137 170.557 170.557 0 000-36.268zm0 0" transform="translate(-25.25 -25.25)" fill="url(#a)"/><path data-name="Path 17" d="M7.672 409.8q.066.66.136 1.32A11.588 11.588 0 0018.1 421.418a192.21 192.21 0 0040.872 0 11.587 11.587 0 0010.293-10.293q.071-.66.136-1.32zm0 0" transform="translate(-6.718 -358.87)" fill="url(#c)"/><path data-name="Path 18" d="M148.849 140.531l-13.209-13.209a15.764 15.764 0 01-3.768 1.576 10.777 10.777 0 01-1.328.273 8.2 8.2 0 00-14.075 5.728c0 .164 0 .325.015.486a7.912 7.912 0 00.149 1.154 22.469 22.469 0 01-13.9-5.558l-2.765-2.765s-3.243 5.661 1.525 9.956a9.1 9.1 0 00.691.691l.061.067a8.036 8.036 0 01-3.6-1 7.959 7.959 0 002.664 6.007l2.328 2.347a4.53 4.53 0 01-2.038-.194 7.839 7.839 0 002.348 3.689l3.261 3.278a16.88 16.88 0 01-9.888 2.2l19.78 19.327a192.419 192.419 0 0020.378-1.09 11.587 11.587 0 0010.295-10.294 192.5 192.5 0 001.075-22.672zm0 0" transform="translate(-85.225 -110.949)" fill="url(#d)"/><path data-name="Path 19" d="M51.542 19.559a14.838 14.838 0 01-4.232 1.175l-.017-.1a7.874 7.874 0 003.122-4.262 15.765 15.765 0 01-3.768 1.576 10.871 10.871 0 01-1.328.273 8.2 8.2 0 00-14.075 5.728c0 .163 0 .325.015.486a7.909 7.909 0 00.149 1.154 22.927 22.927 0 01-16.665-8.323s-3.652 6.372 2.488 10.724a8.553 8.553 0 01-3.808-1.01s-.388 6.14 6.683 8.082c0 0-2.486.622-3.731.078a7.911 7.911 0 007.461 5.674 16.344 16.344 0 01-11.74 3.495 23.18 23.18 0 0035.555-19.6v-.964a14.5 14.5 0 003.893-4.191zm0 0" fill="#fff"/></svg>