<svg xmlns="http://www.w3.org/2000/svg" xmlns:xlink="http://www.w3.org/1999/xlink" width="64" height="62.588"><defs><linearGradient id="b" x1=".246" y1=".198" x2=".769" y2=".821" gradientUnits="objectBoundingBox"><stop offset="0" stop-color="#ff637b"/><stop offset="1" stop-color="#f90217"/></linearGradient><linearGradient id="a" x1=".5" y1=".353" x2=".5" y2=".977" gradientUnits="objectBoundingBox"><stop offset="0" stop-color="#f90217" stop-opacity="0"/><stop offset=".267" stop-color="#e7010f" stop-opacity=".267"/><stop offset=".723" stop-color="#ce0004" stop-opacity=".722"/><stop offset="1" stop-color="#c50000"/></linearGradient><linearGradient id="c" x1=".654" y1=".871" x2=".339" y2=".448" xlink:href="#a"/><linearGradient id="d" x1=".219" y1=".452" x2=".53" y2=".716" gradientUnits="objectBoundingBox"><stop offset="0" stop-color="#ebeff0"/><stop offset="1" stop-color="#e3e5e4"/></linearGradient></defs><g data-name="Group 358"><path data-name="Path 816" d="M61.094 50.684a8.892 8.892 0 00-6.007-6.506 87.913 87.913 0 00-46.175 0A8.892 8.892 0 002.9 50.684a82.515 82.515 0 000 43.4 8.892 8.892 0 006.007 6.506 87.912 87.912 0 0046.175 0 8.892 8.892 0 006.007-6.506 82.515 82.515 0 00.005-43.4z" transform="translate(.001 -41.092)" fill="url(#b)"/><path data-name="Path 817" d="M2.508 303.736A84.58 84.58 0 005.1 318.308a8.892 8.892 0 006.007 6.506 87.913 87.913 0 0046.175 0 8.892 8.892 0 006.007-6.506 84.58 84.58 0 002.59-14.572z" transform="translate(-2.193 -265.312)" fill="url(#a)"/></g><path data-name="Path 818" d="M218.114 188.96a8.892 8.892 0 006.007-6.506q.7-2.624 1.237-5.253l-15.995-18.647a3.641 3.641 0 00-.995-1.114L191.3 145.255c-2.233-1.633-4.884-.054-4.884 3.019v24.955a3.924 3.924 0 001.2 3.217l13.214 15.4a89.7 89.7 0 0017.281-2.891z" transform="translate(-163.026 -129.458)" fill="url(#c)"/><path data-name="Path 819" d="M206.619 156.026l-17.065-12.477c-2.233-1.633-5.135.239-5.135 3.312v24.955c0 3.073 2.9 4.945 5.135 3.312l17.065-12.477a4.276 4.276 0 000-6.625z" transform="translate(-161.276 -128.044)" fill="url(#d)"/></svg>